solid OpenSCAD_Model
  facet normal 1 0 0
    outer loop
      vertex 3 18.9 4.1
      vertex 3 16.9 0.0999994
      vertex 3 18.9 -4.1
    endloop
  endfacet
  facet normal 1 0 0
    outer loop
      vertex 3 18.9 4.1
      vertex 3 -16.9 0.0999994
      vertex 3 16.9 0.0999994
    endloop
  endfacet
  facet normal 1 -0 0
    outer loop
      vertex 3 -18.9 4.1
      vertex 3 -16.9 0.0999994
      vertex 3 18.9 4.1
    endloop
  endfacet
  facet normal 1 0 0
    outer loop
      vertex 3 -18.9 -4.1
      vertex 3 -16.9 0.0999994
      vertex 3 -18.9 4.1
    endloop
  endfacet
  facet normal 1 0 0
    outer loop
      vertex 3 -16.9 0.0999994
      vertex 3 -18.9 -4.1
      vertex 3 -16.9 -4.1
    endloop
  endfacet
  facet normal 1 0 0
    outer loop
      vertex 3 18.9 -4.1
      vertex 3 16.9 0.0999994
      vertex 3 16.9 -4.1
    endloop
  endfacet
  facet normal -0 0 1
    outer loop
      vertex -3 18.9 4.1
      vertex 3 -18.9 4.1
      vertex 3 18.9 4.1
    endloop
  endfacet
  facet normal 0 0 1
    outer loop
      vertex 3 -18.9 4.1
      vertex -3 18.9 4.1
      vertex -3 -18.9 4.1
    endloop
  endfacet
  facet normal 0 0 -1
    outer loop
      vertex -3 16.9 -4.1
      vertex 3 18.9 -4.1
      vertex 3 16.9 -4.1
    endloop
  endfacet
  facet normal -0 0 -1
    outer loop
      vertex 3 18.9 -4.1
      vertex -3 16.9 -4.1
      vertex -3 18.9 -4.1
    endloop
  endfacet
  facet normal 0 0 -1
    outer loop
      vertex -3 -18.9 -4.1
      vertex 3 -16.9 -4.1
      vertex 3 -18.9 -4.1
    endloop
  endfacet
  facet normal -0 0 -1
    outer loop
      vertex 3 -16.9 -4.1
      vertex -3 -18.9 -4.1
      vertex -3 -16.9 -4.1
    endloop
  endfacet
  facet normal -1 0 0
    outer loop
      vertex -3 -16.9 -4.1
      vertex -3 -18.9 -4.1
      vertex -3 -16.9 0.0999994
    endloop
  endfacet
  facet normal -1 0 0
    outer loop
      vertex -3 16.9 0.0999994
      vertex -3 18.9 -4.1
      vertex -3 16.9 -4.1
    endloop
  endfacet
  facet normal -1 0 0
    outer loop
      vertex -3 18.9 -4.1
      vertex -3 16.9 0.0999994
      vertex -3 18.9 4.1
    endloop
  endfacet
  facet normal -1 0 0
    outer loop
      vertex -3 -16.9 0.0999994
      vertex -3 18.9 4.1
      vertex -3 16.9 0.0999994
    endloop
  endfacet
  facet normal -1 0 0
    outer loop
      vertex -3 -16.9 0.0999994
      vertex -3 -18.9 4.1
      vertex -3 18.9 4.1
    endloop
  endfacet
  facet normal -1 0 0
    outer loop
      vertex -3 -18.9 4.1
      vertex -3 -16.9 0.0999994
      vertex -3 -18.9 -4.1
    endloop
  endfacet
  facet normal 0 1 -0
    outer loop
      vertex 3 18.9 -4.1
      vertex -3 18.9 4.1
      vertex 3 18.9 4.1
    endloop
  endfacet
  facet normal 0 1 0
    outer loop
      vertex -3 18.9 4.1
      vertex 3 18.9 -4.1
      vertex -3 18.9 -4.1
    endloop
  endfacet
  facet normal 0 -1 0
    outer loop
      vertex -3 -18.9 -4.1
      vertex 3 -18.9 4.1
      vertex -3 -18.9 4.1
    endloop
  endfacet
  facet normal 0 -1 -0
    outer loop
      vertex 3 -18.9 4.1
      vertex -3 -18.9 -4.1
      vertex 3 -18.9 -4.1
    endloop
  endfacet
  facet normal 0 0 -1
    outer loop
      vertex -3 -16.9 0.0999994
      vertex 3 16.9 0.0999994
      vertex 3 -16.9 0.0999994
    endloop
  endfacet
  facet normal -0 0 -1
    outer loop
      vertex 3 16.9 0.0999994
      vertex -3 -16.9 0.0999994
      vertex -3 16.9 0.0999994
    endloop
  endfacet
  facet normal 0 -1 0
    outer loop
      vertex -3 16.9 -4.1
      vertex 3 16.9 0.0999994
      vertex -3 16.9 0.0999994
    endloop
  endfacet
  facet normal 0 -1 -0
    outer loop
      vertex 3 16.9 0.0999994
      vertex -3 16.9 -4.1
      vertex 3 16.9 -4.1
    endloop
  endfacet
  facet normal 0 1 -0
    outer loop
      vertex 3 -16.9 -4.1
      vertex -3 -16.9 0.0999994
      vertex 3 -16.9 0.0999994
    endloop
  endfacet
  facet normal 0 1 0
    outer loop
      vertex -3 -16.9 0.0999994
      vertex 3 -16.9 -4.1
      vertex -3 -16.9 -4.1
    endloop
  endfacet
endsolid OpenSCAD_Model
